# xmcd
#
# Track frame offsets:
#	150
#	15532
#	37467
#	68830
#
# Disc length: 1249 seconds
#
# Revision: 3
# Processed by: cddbd v1.5.2PL0 Copyright (c) Steve Scherf et al.
# Submitted via: EasyCDDAExtractor 11.0.2.1
#
DISCID=3204df04
DTITLE=Point - Let's Fly Away (1998)
DYEAR=1998
DGENRE=Alternative
TTITLE0=Let's Fly Away (Radio Version)
TTITLE1=Let's Fly Away (Extended Club Version)
TTITLE2=Let's Fly Away (Papuga Brothers Remix)
TTITLE3=Let's Fly Away (Rio Planet Remix)
EXTD=
EXTT0=
EXTT1=
EXTT2=
EXTT3=
PLAYORDER=
